PathFileType	4	(X/Y/Z)	..\data\2015032\dynamic\2015032_C4_03.trc
DataRate	CameraRate	NumFrames	NumMarkers	Units	OrigDataRate	OrigDataStartFrame	OrigNumFrames
100.000000	100.000000	4	48	mm	100.000000	126	203
Frame#	Time	L_IAS			L_IPS			R_IPS			R_IAS			L_FTC			L_FLE			L_FAX			L_TTC			L_FAL			L_FCC			L_FM1			L_FM2			L_FM5			R_FTC			R_FLE			R_FAX			R_TTC			R_FAL			R_FCC			R_FM1			R_FM2			R_FM5			CV7			TV10			SXS			SJN			L_SIA			L_SRS			L_SAA			L_SAE			L_HLE			L_HME			L_UOA			L_RSP			L_UHE			L_HM2			L_HM5			R_SIA			R_SRS			R_SAA			R_SAE			R_HLE			R_HME			R_UOA			R_RSP			R_UHE			R_HM2			R_HM5			
		X1	Y1	Z1	X2	Y2	Z2	X3	Y3	Z3	X4	Y4	Z4	X5	Y5	Z5	X6	Y6	Z6	X7	Y7	Z7	X8	Y8	Z8	X9	Y9	Z9	X10	Y10	Z10	X11	Y11	Z11	X12	Y12	Z12	X13	Y13	Z13	X14	Y14	Z14	X15	Y15	Z15	X16	Y16	Z16	X17	Y17	Z17	X18	Y18	Z18	X19	Y19	Z19	X20	Y20	Z20	X21	Y21	Z21	X22	Y22	Z22	X23	Y23	Z23	X24	Y24	Z24	X25	Y25	Z25	X26	Y26	Z26	X27	Y27	Z27	X28	Y28	Z28	X29	Y29	Z29	X30	Y30	Z30	X31	Y31	Z31	X32	Y32	Z32	X33	Y33	Z33	X34	Y34	Z34	X35	Y35	Z35	X36	Y36	Z36	X37	Y37	Z37	X38	Y38	Z38	X39	Y39	Z39	X40	Y40	Z40	X41	Y41	Z41	X42	Y42	Z42	X43	Y43	Z43	X44	Y44	Z44	X45	Y45	Z45	X46	Y46	Z46	X47	Y47	Z47	X48	Y48	Z48	

127	1.26	851.1343383789065	927.9494628906252	-362.8648681640626	694.0150756835939	944.7324218750002	-302.3599243164063	685.9996337890626	946.1835937500002	-194.1845703125001	840.8797607421877	938.198425292969	-127.9866333007813	782.4101562500002	856.0014648437502	-417.5339965820314	716.6132202148439	436.6891174316407	-362.6064758300782	698.7222900390626	376.9930114746094	-359.3903808593751	752.2431030273439	364.7138366699219	-304.0400390625001	613.6347045898439	62.0583953857422	-280.6306762695313	567.2933349609376	24.80080604553223	-233.4010772705079	764.6504516601564	21.3392333984375	-227.2022247314454	759.0609741210939	29.85622024536134	-287.2836914062501	706.6083984375001	21.13399314880371	-329.5513305664063	750.2152709960939	848.1787109375002	-76.0940399169922	908.939147949219	456.0789184570314	-104.6897659301758	912.7236938476565	403.2904052734376	-103.8264541625977	975.8049926757815	405.8230590820314	-152.4656372070313	939.4584960937502	64.7473831176758	-148.2444610595703	925.868591308594	19.39969444274903	-208.8121948242188	1109.306274414063	62.16578674316408	-162.9566497802735	1088.606323242188	66.6248245239258	-115.2845840454102	1038.743774414063	37.67734909057618	-82.71118927001955	715.1716918945314	1430.893920898438	-246.1322784423829	655.9869384765626	1204.2958984375	-252.9641418457032	836.498962402344	1173.660766601563	-240.8571166992188	810.651794433594	1340.017456054688	-234.8044128417969	652.9334106445314	1238.774658203125	-374.4178771972657	682.8454589843751	1359.962768554688	-356.6414489746094	768.5023193359377	1373.552734375	-431.7308349609376	815.2022094726565	1372.815307617188	-427.9973144531251	857.9941406250002	1070.32275390625	-485.0205688476564	805.4309082031252	1043.875854492188	-432.0830688476564	822.399108886719	1025.106567382813	-474.4891052246095	999.723083496094	870.6547851562502	-406.9766845703126	973.212097167969	864.2905273437502	-479.0064392089845	1044.498901367188	800.7626953125002	-398.0786743164064	987.8511962890627	789.3914794921877	-481.964569091797	624.6181640625001	1236.260131835938	-143.5624389648438	656.1097412109376	1354.235229492188	-153.3613739013672	710.2332763671876	1358.273559570313	-56.81778717041017	753.2841186523439	1358.731567382813	-38.80592727661134	704.0294799804689	1049.581909179688	-17.52013587951661	694.0144042968751	1043.419311523438	-90.17754364013673	674.2452392578126	1022.800903320313	-49.11146545410158	806.7225341796877	817.826843261719	-37.9590187072754	746.8933715820314	816.245788574219	6.167867183685305	832.731384277344	732.8665771484376	-25.13328361511231	737.0244750976564	742.4276733398439	8.998109817504885	
128	1.27	857.655212402344	927.1210937500002	-363.2430114746094	700.8414306640626	943.9224243164065	-301.8657226562501	693.4454345703126	945.4976806640627	-193.6696319580079	848.7224121093752	937.6623535156252	-128.2807769775391	788.4451904296877	855.160339355469	-417.5817260742189	720.1914062500001	436.517547607422	-362.5815734863282	701.7857666015626	376.9769287109376	-359.3447570800782	755.2513427734376	364.2170410156251	-304.1532287597657	613.9436645507814	62.78499603271486	-280.6412048339844	567.4755859375001	25.72874832153321	-233.4330291748047	764.5621337890626	21.37160873413086	-227.2713012695313	759.0269775390626	29.77509880065919	-287.3768005371094	706.6300048828126	21.05158805847168	-329.5537109375001	758.1083374023439	847.6958007812502	-75.92730712890626	915.3477172851565	454.6731567382814	-104.0977554321289	920.3020019531252	401.8342895507814	-103.7151184082032	983.5325927734377	405.9849243164064	-152.1266479492188	957.0999755859377	64.1670608520508	-150.2781066894532	945.0036621093752	18.68284988403321	-211.3439331054688	1127.162475585938	66.00300598144533	-165.536865234375	1106.522338867188	69.55203247070314	-117.8372421264649	1057.433349609375	38.96601486206055	-85.33082580566408	722.6553344726564	1430.245483398438	-245.6091308593751	663.3036499023439	1203.702392578125	-252.6761474609376	843.8275146484377	1172.916870117188	-240.8141784667969	818.0298461914065	1339.266723632813	-234.4389648437501	660.1926269531251	1238.359252929688	-374.1483154296876	690.2100219726564	1359.543334960938	-356.2781066894532	775.9673461914065	1373.056396484375	-431.3103637695314	822.654968261719	1372.268798828125	-427.5261535644532	865.429870605469	1069.682373046875	-484.3293457031251	813.0168457031252	1043.233032226563	-431.173797607422	829.8881835937502	1024.25244140625	-473.5987854003907	1008.255187988281	871.1945800781252	-405.3125000000001	981.6802368164065	864.195007324219	-477.222869873047	1053.476440429688	801.6551513671877	-396.0259704589845	996.7393798828127	789.385681152344	-479.721649169922	631.9807128906251	1235.43408203125	-143.413314819336	663.5261230468751	1353.47021484375	-152.9525756835938	717.6396484375001	1357.245361328125	-56.41646957397462	760.6702270507814	1357.649658203125	-38.37535858154298	710.7120361328126	1048.582397460938	-17.924560546875	700.9563598632814	1042.5791015625	-90.56225585937501	680.9154663085939	1022.009521484375	-49.64499282836915	812.2780761718752	816.3690185546877	-38.39562606811524	752.1996459960939	815.0256958007815	5.636179924011231	837.7028808593752	731.2445678710939	-25.59592437744141	741.9797973632814	741.2559204101564	8.284752845764162	
129	1.28	864.236999511719	926.3276977539065	-363.5887451171876	707.7412109375001	943.0952148437502	-301.2868041992188	700.9891967773439	944.7758789062502	-193.0723876953126	856.6770019531252	937.1201171875002	-128.5386199951172	794.5324707031252	854.3486328125002	-417.5655517578126	723.9322509765626	436.4000244140626	-362.5053100585938	705.0031738281251	377.0228271484376	-359.2539062500001	758.4415283203126	363.7617492675782	-304.2569274902344	614.2868041992189	63.63077926635744	-280.6377563476563	567.6758422851564	26.82360458374024	-233.4613800048829	764.4761962890626	21.43183898925782	-227.3535156250001	758.9890747070314	29.6936206817627	-287.4677734375001	706.6448974609376	20.97353744506836	-329.5384826660157	766.1779174804689	847.1643676757815	-75.73214721679689	921.8684082031252	453.3143615722657	-103.5776824951172	927.8424072265627	400.4446411132814	-103.6568832397461	991.138366699219	406.010711669922	-151.9295349121094	973.265808105469	63.7685890197754	-152.2032165527344	962.3614501953127	18.2060546875	-213.6824035644532	1143.40625	69.49728393554689	-168.172348022461	1122.924926757813	72.23613739013673	-120.4145584106446	1074.597778320313	40.21974182128907	-87.93331146240236	730.1734008789064	1429.600830078125	-245.0281829833985	670.6553344726564	1203.111694335938	-252.3316650390626	851.1961669921877	1172.176513671875	-240.7301788330079	825.4445800781252	1338.518310546875	-234.0364074707032	667.4365844726564	1237.9404296875	-373.7809448242188	697.5603027343751	1359.148315429688	-355.8542175292969	783.4154052734377	1372.535888671875	-430.8429565429689	830.0924072265627	1371.691284179688	-427.0209045410157	872.6677246093752	1068.978393554688	-483.5688781738282	820.4121704101565	1042.56005859375	-430.1751708984376	837.1602172851565	1023.360229492188	-472.6216735839845	1016.464965820313	871.570251464844	-403.6307678222657	989.7981567382815	863.956237792969	-475.4069213867189	1062.082763671875	802.356140136719	-393.9712829589845	1005.224182128906	789.2263183593752	-477.4503784179689	639.4080810546876	1234.612060546875	-143.1654510498047	671.0052490234376	1352.711303710938	-152.4555206298828	725.1500244140626	1356.222534179688	-55.93923568725587	768.1611328125002	1356.568969726563	-37.8889503479004	717.5266723632814	1047.579711914063	-18.25802803039551	707.9946289062501	1041.738525390625	-90.86803436279298	687.7092895507814	1021.211975097656	-50.09529495239259	817.947937011719	814.9289550781252	-38.83225250244141	757.6611938476564	813.8103637695315	5.140108585357667	842.8081665039065	729.6281127929689	-26.06908798217774	747.1021728515626	740.0913085937501	7.614315032958986	
130	1.29	870.9026489257815	925.5759277343752	-363.8907165527344	714.7351684570314	942.266540527344	-300.6282348632813	708.6402587890626	944.0349121093752	-192.3994750976563	864.7456054687502	936.583923339844	-128.7519683837891	800.6958618164065	853.576354980469	-417.4815368652345	727.8351440429689	436.3463134765626	-362.3750000000001	708.3745117187501	377.1390075683594	-359.1159667968751	761.8164062500001	363.3547363281251	-304.3472595214844	614.6662597656251	64.5992889404297	-280.6261291503907	567.8911743164064	28.09296226501466	-233.4928131103516	764.3994750976564	21.52338790893555	-227.4533233642579	758.9481201171876	29.61761665344239	-287.5601501464844	706.6532592773439	20.90627479553223	-329.5104675292969	774.4400024414065	846.597839355469	-75.50540161132814	928.5495605468752	452.035369873047	-103.1449737548828	935.3846435546877	399.1456298828126	-103.6523666381836	998.6450805664065	405.9000549316407	-151.9049224853516	987.874450683594	63.46792602539064	-153.9850006103516	977.7999267578127	17.89893531799317	-215.7782745361329	1157.979248046875	72.49648284912111	-170.8853912353516	1137.760498046875	74.54211425781251	-123.0272674560547	1090.165771484375	41.32413864135743	-90.51246643066408	737.7227172851564	1428.970458984375	-244.392074584961	678.0450439453126	1202.529907226563	-251.9343414306641	858.6096801757815	1171.450927734375	-240.5995178222657	832.8958740234377	1337.783203125	-233.5948638916016	674.6630859375001	1237.523559570313	-373.3127746582032	704.8922119140626	1358.788330078125	-355.3696289062501	790.8431396484377	1371.999877929688	-430.3276672363282	837.510925292969	1371.092041015625	-426.482879638672	879.7192993164065	1068.223999023438	-482.7437744140626	827.6216430664065	1041.866333007813	-429.1006774902345	844.2272949218752	1022.446166992188	-471.5674438476564	1024.353637695313	871.7833251953127	-401.942840576172	997.5703125000002	863.5821533203127	-473.5724487304689	1070.313232421875	802.8607177734377	-391.9261474609376	1013.308288574219	788.9185180664065	-475.1702270507814	646.9014282226564	1233.804931640625	-142.8159942626953	678.5458984375001	1351.966918945313	-151.8716430664063	732.7568359375001	1355.219848632813	-55.38916397094728	775.754577636719	1355.505737304688	-37.34664916992188	724.4762573242189	1046.588745117188	-18.51554679870606	715.1193237304689	1040.918090820313	-91.09327697753908	694.6284790039064	1020.423400878906	-50.45581817626955	823.7374267578127	813.5257568359377	-39.26969528198243	763.2893066406251	812.6172485351565	4.682467937469483	848.0520629882815	728.0385131835939	-26.55623817443848	752.3993530273439	738.9492187500001	6.991820335388185	
